<svg width="95" height="100" viewBox="0 0 95 100" fill="#06b6d4" xmlns="http://www.w3.org/2000/svg">
    <rect x="6.33594" width="4" height="4" rx="2"></rect><rect x="12.3359" width="4" height="4" rx="2"></rect><rect x="18.3359" width="4" height="4" rx="2"></rect><rect x="24.3359" width="4" height="4" rx="2"></rect><rect x="30.3359" width="4" height="4" rx="2"></rect><rect x="36.3359" width="4" height="4" rx="2"></rect><rect x="42.3359" width="4" height="4" rx="2"></rect><rect width="4" height="4" rx="2" transform="matrix(-1 0 0 1 52.3359 0)"></rect><rect width="4" height="4" rx="2" transform="matrix(-1 0 0 1 58.3359 0)"></rect><rect width="4" height="4" rx="2" transform="matrix(-1 0 0 1 64.3359 0)"></rect><rect width="4" height="4" rx="2" transform="matrix(-1 0 0 1 70.3359 0)"></rect><rect width="4" height="4" rx="2" transform="matrix(-1 0 0 1 76.3359 0)"></rect><rect width="4" height="4" rx="2" transform="matrix(-1 0 0 1 82.3359 0)"></rect><rect width="4" height="4" rx="2" transform="matrix(-1 0 0 1 88.3359 0)"></rect><rect x="0.335938" y="6" width="4" height="4" rx="2"></rect><rect x="6.33594" y="6" width="4" height="4" rx="2"></rect><rect x="12.3359" y="6" width="4" height="4" rx="2"></rect><rect x="18.3359" y="6" width="4" height="4" rx="2"></rect><rect x="24.3359" y="6" width="4" height="4" rx="2"></rect><rect x="30.3359" y="6" width="4" height="4" rx="2"></rect><rect x="36.3359" y="6" width="4" height="4" rx="2"></rect><rect x="42.3359" y="6" width="4" height="4" rx="2"></rect><rect width="4" height="4" rx="2" transform="matrix(-1 0 0 1 52.3359 6)"></rect><rect width="4" height="4" rx="2" transform="matrix(-1 0 0 1 58.3359 6)"></rect><rect width="4" height="4" rx="2" transform="matrix(-1 0 0 1 64.3359 6)"></rect><rect width="4" height="4" rx="2" transform="matrix(-1 0 0 1 70.3359 6)"></rect><rect width="4" height="4" rx="2" transform="matrix(-1 0 0 1 76.3359 6)"></rect><rect width="4" height="4" rx="2" transform="matrix(-1 0 0 1 82.3359 6)"></rect><rect width="4" height="4" rx="2" transform="matrix(-1 0 0 1 88.3359 6)"></rect><rect width="4" height="4" rx="2" transform="matrix(-1 0 0 1 94.3359 6)"></rect><rect x="0.335938" y="12" width="4" height="4" rx="2"></rect><rect x="6.33594" y="12" width="4" height="4" rx="2"></rect><rect x="24.3359" y="12" width="4" height="4" rx="2"></rect><rect x="30.3359" y="12" width="4" height="4" rx="2"></rect><rect x="36.3359" y="12" width="4" height="4" rx="2"></rect><rect x="42.3359" y="12" width="4" height="4" rx="2"></rect><rect width="4" height="4" rx="2" transform="matrix(-1 0 0 1 52.3359 12)"></rect><rect width="4" height="4" rx="2" transform="matrix(-1 0 0 1 58.3359 12)"></rect><rect width="4" height="4" rx="2" transform="matrix(-1 0 0 1 64.3359 12)"></rect><rect width="4" height="4" rx="2" transform="matrix(-1 0 0 1 70.3359 12)"></rect><rect width="4" height="4" rx="2" transform="matrix(-1 0 0 1 76.3359 12)"></rect><rect width="4" height="4" rx="2" transform="matrix(-1 0 0 1 82.3359 12)"></rect><rect width="4" height="4" rx="2" transform="matrix(-1 0 0 1 88.3359 12)"></rect><rect width="4" height="4" rx="2" transform="matrix(-1 0 0 1 94.3359 12)"></rect><rect x="0.335938" y="18" width="4" height="4" rx="2"></rect><rect x="6.33594" y="18" width="4" height="4" rx="2"></rect><rect x="24.3359" y="18" width="4" height="4" rx="2"></rect><rect x="30.3359" y="18" width="4" height="4" rx="2"></rect><rect x="36.3359" y="18" width="4" height="4" rx="2"></rect><rect x="42.3359" y="18" width="4" height="4" rx="2"></rect><rect width="4" height="4" rx="2" transform="matrix(-1 0 0 1 52.3359 18)"></rect><rect width="4" height="4" rx="2" transform="matrix(-1 0 0 1 58.3359 18)"></rect><rect width="4" height="4" rx="2" transform="matrix(-1 0 0 1 64.3359 18)"></rect><rect width="4" height="4" rx="2" transform="matrix(-1 0 0 1 70.3359 18)"></rect><rect width="4" height="4" rx="2" transform="matrix(-1 0 0 1 76.3359 18)"></rect><rect width="4" height="4" rx="2" transform="matrix(-1 0 0 1 82.3359 18)"></rect><rect width="4" height="4" rx="2" transform="matrix(-1 0 0 1 88.3359 18)"></rect><rect width="4" height="4" rx="2" transform="matrix(-1 0 0 1 94.3359 18)"></rect><rect x="0.335938" y="24" width="4" height="4" rx="2"></rect><rect x="6.33594" y="24" width="4" height="4" rx="2"></rect><rect x="12.3359" y="24" width="4" height="4" rx="2"></rect><rect x="18.3359" y="24" width="4" height="4" rx="2"></rect><rect x="24.3359" y="24" width="4" height="4" rx="2"></rect><rect x="30.3359" y="24" width="4" height="4" rx="2"></rect><rect x="36.3359" y="24" width="4" height="4" rx="2"></rect><rect x="42.3359" y="24" width="4" height="4" rx="2"></rect><rect width="4" height="4" rx="2" transform="matrix(-1 0 0 1 52.3359 24)"></rect><rect width="4" height="4" rx="2" transform="matrix(-1 0 0 1 58.3359 24)"></rect><rect width="4" height="4" rx="2" transform="matrix(-1 0 0 1 64.3359 24)"></rect><rect width="4" height="4" rx="2" transform="matrix(-1 0 0 1 70.3359 24)"></rect><rect width="4" height="4" rx="2" transform="matrix(-1 0 0 1 76.3359 24)"></rect><rect width="4" height="4" rx="2" transform="matrix(-1 0 0 1 82.3359 24)"></rect><rect width="4" height="4" rx="2" transform="matrix(-1 0 0 1 88.3359 24)"></rect><rect width="4" height="4" rx="2" transform="matrix(-1 0 0 1 94.3359 24)"></rect><rect x="0.335938" y="30" width="4" height="4" rx="2"></rect><rect x="6.33594" y="30" width="4" height="4" rx="2"></rect><rect x="12.3359" y="30" width="4" height="4" rx="2"></rect><rect x="18.3359" y="30" width="4" height="4" rx="2"></rect><rect x="24.3359" y="30" width="4" height="4" rx="2"></rect><rect x="30.3359" y="30" width="4" height="4" rx="2"></rect><rect x="36.3359" y="30" width="4" height="4" rx="2"></rect><rect x="42.3359" y="30" width="4" height="4" rx="2"></rect><rect width="4" height="4" rx="2" transform="matrix(-1 0 0 1 52.3359 30)"></rect><rect width="4" height="4" rx="2" transform="matrix(-1 0 0 1 58.3359 30)"></rect><rect width="4" height="4" rx="2" transform="matrix(-1 0 0 1 64.3359 30)"></rect><rect width="4" height="4" rx="2" transform="matrix(-1 0 0 1 70.3359 30)"></rect><rect width="4" height="4" rx="2" transform="matrix(-1 0 0 1 76.3359 30)"></rect><rect width="4" height="4" rx="2" transform="matrix(-1 0 0 1 82.3359 30)"></rect><rect width="4" height="4" rx="2" transform="matrix(-1 0 0 1 88.3359 30)"></rect><rect width="4" height="4" rx="2" transform="matrix(-1 0 0 1 94.3359 30)"></rect><rect x="0.335938" y="36" width="4" height="4" rx="2"></rect><rect x="6.33594" y="36" width="4" height="4" rx="2"></rect><rect x="24.3359" y="36" width="4" height="4" rx="2"></rect><rect x="30.3359" y="36" width="4" height="4" rx="2"></rect><rect width="4" height="4" rx="2" transform="matrix(-1 0 0 1 52.3359 36)"></rect><rect width="4" height="4" rx="2" transform="matrix(-1 0 0 1 82.3359 36)"></rect><rect width="4" height="4" rx="2" transform="matrix(-1 0 0 1 88.3359 36)"></rect><rect width="4" height="4" rx="2" transform="matrix(-1 0 0 1 94.3359 36)"></rect><rect x="0.335938" y="42" width="4" height="4" rx="2"></rect><rect x="6.33594" y="42" width="4" height="4" rx="2"></rect><rect x="24.3359" y="42" width="4" height="4" rx="2"></rect><rect x="30.3359" y="42" width="4" height="4" rx="2"></rect><rect width="4" height="4" rx="2" transform="matrix(-1 0 0 1 82.3359 42)"></rect><rect width="4" height="4" rx="2" transform="matrix(-1 0 0 1 88.3359 42)"></rect><rect width="4" height="4" rx="2" transform="matrix(-1 0 0 1 94.3359 42)"></rect><rect x="0.335938" y="48" width="4" height="4" rx="2"></rect><rect x="6.33594" y="48" width="4" height="4" rx="2"></rect><rect x="24.3359" y="48" width="4" height="4" rx="2"></rect><rect x="30.3359" y="48" width="4" height="4" rx="2"></rect><rect width="4" height="4" rx="2" transform="matrix(-1 0 0 1 58.3359 48)"></rect><rect width="4" height="4" rx="2" transform="matrix(-1 0 0 1 64.3359 48)"></rect><rect width="4" height="4" rx="2" transform="matrix(-1 0 0 1 88.3359 48)"></rect><rect width="4" height="4" rx="2" transform="matrix(-1 0 0 1 94.3359 48)"></rect><rect x="0.335938" y="54" width="4" height="4" rx="2"></rect><rect x="6.33594" y="54" width="4" height="4" rx="2"></rect><rect x="24.3359" y="54" width="4" height="4" rx="2"></rect><rect x="30.3359" y="54" width="4" height="4" rx="2"></rect><rect width="4" height="4" rx="2" transform="matrix(-1 0 0 1 52.3359 54)"></rect><rect width="4" height="4" rx="2" transform="matrix(-1 0 0 1 58.3359 54)"></rect><rect width="4" height="4" rx="2" transform="matrix(-1 0 0 1 64.3359 54)"></rect><rect width="4" height="4" rx="2" transform="matrix(-1 0 0 1 70.3359 54)"></rect><rect width="4" height="4" rx="2" transform="matrix(-1 0 0 1 88.3359 54)"></rect><rect width="4" height="4" rx="2" transform="matrix(-1 0 0 1 94.3359 54)"></rect><rect x="0.335938" y="60" width="4" height="4" rx="2"></rect><rect x="6.33594" y="60" width="4" height="4" rx="2"></rect><rect x="24.3359" y="60" width="4" height="4" rx="2"></rect><rect x="30.3359" y="60" width="4" height="4" rx="2"></rect><rect width="4" height="4" rx="2" transform="matrix(-1 0 0 1 52.3359 60)"></rect><rect width="4" height="4" rx="2" transform="matrix(-1 0 0 1 58.3359 60)"></rect><rect width="4" height="4" rx="2" transform="matrix(-1 0 0 1 64.3359 60)"></rect><rect width="4" height="4" rx="2" transform="matrix(-1 0 0 1 70.3359 60)"></rect><rect width="4" height="4" rx="2" transform="matrix(-1 0 0 1 88.3359 60)"></rect><rect width="4" height="4" rx="2" transform="matrix(-1 0 0 1 94.3359 60)"></rect><rect x="0.335938" y="66" width="4" height="4" rx="2"></rect><rect x="6.33594" y="66" width="4" height="4" rx="2"></rect><rect x="24.3359" y="66" width="4" height="4" rx="2"></rect><rect x="30.3359" y="66" width="4" height="4" rx="2"></rect><rect width="4" height="4" rx="2" transform="matrix(-1 0 0 1 52.3359 66)"></rect><rect width="4" height="4" rx="2" transform="matrix(-1 0 0 1 58.3359 66)"></rect><rect width="4" height="4" rx="2" transform="matrix(-1 0 0 1 64.3359 66)"></rect><rect width="4" height="4" rx="2" transform="matrix(-1 0 0 1 70.3359 66)"></rect><rect width="4" height="4" rx="2" transform="matrix(-1 0 0 1 88.3359 66)"></rect><rect width="4" height="4" rx="2" transform="matrix(-1 0 0 1 94.3359 66)"></rect><rect x="0.335938" y="72" width="4" height="4" rx="2"></rect><rect x="6.33594" y="72" width="4" height="4" rx="2"></rect><rect x="24.3359" y="72" width="4" height="4" rx="2"></rect><rect x="30.3359" y="72" width="4" height="4" rx="2"></rect><rect width="4" height="4" rx="2" transform="matrix(-1 0 0 1 52.3359 72)"></rect><rect width="4" height="4" rx="2" transform="matrix(-1 0 0 1 58.3359 72)"></rect><rect width="4" height="4" rx="2" transform="matrix(-1 0 0 1 64.3359 72)"></rect><rect width="4" height="4" rx="2" transform="matrix(-1 0 0 1 70.3359 72)"></rect><rect width="4" height="4" rx="2" transform="matrix(-1 0 0 1 88.3359 72)"></rect><rect width="4" height="4" rx="2" transform="matrix(-1 0 0 1 94.3359 72)"></rect><rect x="0.335938" y="78" width="4" height="4" rx="2"></rect><rect x="6.33594" y="78" width="4" height="4" rx="2"></rect><rect x="24.3359" y="78" width="4" height="4" rx="2"></rect><rect x="30.3359" y="78" width="4" height="4" rx="2"></rect><rect width="4" height="4" rx="2" transform="matrix(-1 0 0 1 52.3359 78)"></rect><rect width="4" height="4" rx="2" transform="matrix(-1 0 0 1 58.3359 78)"></rect><rect width="4" height="4" rx="2" transform="matrix(-1 0 0 1 64.3359 78)"></rect><rect width="4" height="4" rx="2" transform="matrix(-1 0 0 1 70.3359 78)"></rect><rect width="4" height="4" rx="2" transform="matrix(-1 0 0 1 88.3359 78)"></rect><rect width="4" height="4" rx="2" transform="matrix(-1 0 0 1 94.3359 78)"></rect><rect x="0.335938" y="84" width="4" height="4" rx="2"></rect><rect x="6.33594" y="84" width="4" height="4" rx="2"></rect><rect x="12.3359" y="84" width="4" height="4" rx="2"></rect><rect x="18.3359" y="84" width="4" height="4" rx="2"></rect><rect x="24.3359" y="84" width="4" height="4" rx="2"></rect><rect x="30.3359" y="84" width="4" height="4" rx="2"></rect><rect x="36.3359" y="84" width="4" height="4" rx="2"></rect><rect x="42.3359" y="84" width="4" height="4" rx="2"></rect><rect width="4" height="4" rx="2" transform="matrix(-1 0 0 1 52.3359 84)"></rect><rect width="4" height="4" rx="2" transform="matrix(-1 0 0 1 58.3359 84)"></rect><rect width="4" height="4" rx="2" transform="matrix(-1 0 0 1 64.3359 84)"></rect><rect width="4" height="4" rx="2" transform="matrix(-1 0 0 1 70.3359 84)"></rect><rect width="4" height="4" rx="2" transform="matrix(-1 0 0 1 76.3359 84)"></rect><rect width="4" height="4" rx="2" transform="matrix(-1 0 0 1 82.3359 84)"></rect><rect width="4" height="4" rx="2" transform="matrix(-1 0 0 1 88.3359 84)"></rect><rect width="4" height="4" rx="2" transform="matrix(-1 0 0 1 94.3359 84)"></rect><rect x="0.335938" y="90" width="4" height="4" rx="2"></rect><rect x="6.33594" y="90" width="4" height="4" rx="2"></rect><rect x="12.3359" y="90" width="4" height="4" rx="2"></rect><rect x="18.3359" y="90" width="4" height="4" rx="2"></rect><rect x="24.3359" y="90" width="4" height="4" rx="2"></rect><rect x="30.3359" y="90" width="4" height="4" rx="2"></rect><rect x="36.3359" y="90" width="4" height="4" rx="2"></rect><rect x="42.3359" y="90" width="4" height="4" rx="2"></rect><rect width="4" height="4" rx="2" transform="matrix(-1 0 0 1 52.3359 90)"></rect><rect width="4" height="4" rx="2" transform="matrix(-1 0 0 1 58.3359 90)"></rect><rect width="4" height="4" rx="2" transform="matrix(-1 0 0 1 64.3359 90)"></rect><rect width="4" height="4" rx="2" transform="matrix(-1 0 0 1 70.3359 90)"></rect><rect width="4" height="4" rx="2" transform="matrix(-1 0 0 1 76.3359 90)"></rect><rect width="4" height="4" rx="2" transform="matrix(-1 0 0 1 82.3359 90)"></rect><rect width="4" height="4" rx="2" transform="matrix(-1 0 0 1 88.3359 90)"></rect><rect width="4" height="4" rx="2" transform="matrix(-1 0 0 1 94.3359 90)"></rect><rect x="6.33594" y="96" width="4" height="4" rx="2"></rect><rect x="12.3359" y="96" width="4" height="4" rx="2"></rect><rect x="18.3359" y="96" width="4" height="4" rx="2"></rect><rect x="24.3359" y="96" width="4" height="4" rx="2"></rect><rect x="30.3359" y="96" width="4" height="4" rx="2"></rect><rect x="36.3359" y="96" width="4" height="4" rx="2"></rect><rect x="42.3359" y="96" width="4" height="4" rx="2"></rect><rect width="4" height="4" rx="2" transform="matrix(-1 0 0 1 52.3359 96)"></rect><rect width="4" height="4" rx="2" transform="matrix(-1 0 0 1 58.3359 96)"></rect><rect width="4" height="4" rx="2" transform="matrix(-1 0 0 1 64.3359 96)"></rect><rect width="4" height="4" rx="2" transform="matrix(-1 0 0 1 70.3359 96)"></rect><rect width="4" height="4" rx="2" transform="matrix(-1 0 0 1 76.3359 96)"></rect><rect width="4" height="4" rx="2" transform="matrix(-1 0 0 1 82.3359 96)"></rect><rect width="4" height="4" rx="2" transform="matrix(-1 0 0 1 88.3359 96)"></rect>
</svg>